<?xml version="1.0" encoding="UTF-8" standalone="no"?>
<!-- Created with Inkscape (http://www.inkscape.org/) -->

<svg
   xmlns:dc="http://purl.org/dc/elements/1.1/"
   xmlns:cc="http://creativecommons.org/ns#"
   xmlns:rdf="http://www.w3.org/1999/02/22-rdf-syntax-ns#"
   xmlns:svg="http://www.w3.org/2000/svg"
   xmlns="http://www.w3.org/2000/svg"
   xmlns:sodipodi="http://sodipodi.sourceforge.net/DTD/sodipodi-0.dtd"
   xmlns:inkscape="http://www.inkscape.org/namespaces/inkscape"
   width="32"
   height="32"
   viewBox="0 0 8.4666665 8.4666669"
   version="1.1"
   id="svg8"
   inkscape:version="0.92.2 (5c3e80d, 2017-08-06)"
   sodipodi:docname="99d.svg">
  <defs
     id="defs2" />
  <sodipodi:namedview
     id="base"
     pagecolor="#ffffff"
     bordercolor="#666666"
     borderopacity="1.0"
     inkscape:pageopacity="0.0"
     inkscape:pageshadow="2"
     inkscape:zoom="22.4"
     inkscape:cx="25.473755"
     inkscape:cy="14.6965"
     inkscape:document-units="mm"
     inkscape:current-layer="layer1"
     showgrid="false"
     units="px"
     guidetolerance="20"
     inkscape:snap-path-clip="false"
     inkscape:snap-path-mask="false"
     objecttolerance="10000"
     gridtolerance="10"
     inkscape:snap-bbox="true"
     inkscape:bbox-paths="true"
     inkscape:bbox-nodes="true"
     inkscape:snap-bbox-edge-midpoints="true"
     inkscape:snap-bbox-midpoints="true"
     inkscape:object-paths="true"
     inkscape:snap-intersection-paths="true"
     inkscape:snap-smooth-nodes="true"
     inkscape:snap-midpoints="true"
     inkscape:snap-object-midpoints="true"
     inkscape:snap-center="true"
     inkscape:snap-text-baseline="true"
     inkscape:snap-page="true"
     inkscape:snap-global="false"
     inkscape:window-width="1920"
     inkscape:window-height="1017"
     inkscape:window-x="-8"
     inkscape:window-y="118"
     inkscape:window-maximized="1" />
  <metadata
     id="metadata5">
    <rdf:RDF>
      <cc:Work
         rdf:about="">
        <dc:format>image/svg+xml</dc:format>
        <dc:type
           rdf:resource="http://purl.org/dc/dcmitype/StillImage" />
        <dc:title></dc:title>
      </cc:Work>
    </rdf:RDF>
  </metadata>
  <g
     inkscape:label="Vrstva 1"
     inkscape:groupmode="layer"
     id="layer1"
     transform="translate(0,-288.53332)">
    <g
       id="g1423"
       transform="matrix(1.0795428,0,0,1.0795428,-0.43959009,-22.343583)">
      <path
         inkscape:connector-curvature="0"
         id="path1377"
         d="M 1.4764695,294.83844 H 2.7993861 L 4.342921,292.16495 2.3741629,293.2911 Z"
         style="fill:#343940;fill-opacity:1;stroke:none;stroke-width:0.26458332px;stroke-linecap:butt;stroke-linejoin:miter;stroke-opacity:1" />
      <path
         transform="matrix(0.26458333,0,0,0.26458333,0,288.53332)"
         id="path1379"
         d="M 9.4199219,2.65625 A 7.737136,7.737136 0 0 0 1.6816406,10.392578 7.737136,7.737136 0 0 0 9.4199219,18.130859 7.737136,7.737136 0 0 0 17.15625,10.392578 7.737136,7.737136 0 0 0 9.4199219,2.65625 Z m 0,4.2695312 A 3.4667824,3.4667824 0 0 1 12.886719,10.392578 3.4667824,3.4667824 0 0 1 9.4199219,13.859375 3.4667824,3.4667824 0 0 1 5.953125,10.392578 3.4667824,3.4667824 0 0 1 9.4199219,6.9257812 Z"
         style="fill:#343a40;fill-opacity:0.99014779;fill-rule:evenodd;stroke-width:0.99999994"
         inkscape:connector-curvature="0" />
      <path
         inkscape:connector-curvature="0"
         id="path1377-4"
         d="M 5.1692674,294.83845 H 6.492184 l 1.5435348,-2.67349 -1.968758,1.12615 z"
         style="fill:#343940;fill-opacity:1;stroke:none;stroke-width:0.26458332px;stroke-linecap:butt;stroke-linejoin:miter;stroke-opacity:1" />
      <path
         id="path1379-9"
         d="m 6.1851522,289.23612 a 2.0471172,2.0471172 0 0 0 -2.0474203,2.0469 2.0471172,2.0471172 0 0 0 2.0474203,2.04742 2.0471172,2.0471172 0 0 0 2.0469033,-2.04742 2.0471172,2.0471172 0 0 0 -2.0469033,-2.0469 z m 0,1.12965 a 0.91725284,0.91725284 0 0 1 0.9172566,0.91725 0.91725284,0.91725284 0 0 1 -0.9172566,0.91726 0.91725284,0.91725284 0 0 1 -0.9172567,-0.91726 0.91725284,0.91725284 0 0 1 0.9172567,-0.91725 z"
         style="fill:#343a40;fill-opacity:0.99014779;fill-rule:evenodd;stroke-width:0.26458332"
         inkscape:connector-curvature="0" />
    </g>
  </g>
</svg>
