<?xml version="1.0" encoding="UTF-8" standalone="no"?>
<!-- Created with Inkscape (http://www.inkscape.org/) -->

<svg
   xmlns:dc="http://purl.org/dc/elements/1.1/"
   xmlns:cc="http://creativecommons.org/ns#"
   xmlns:rdf="http://www.w3.org/1999/02/22-rdf-syntax-ns#"
   xmlns:svg="http://www.w3.org/2000/svg"
   xmlns="http://www.w3.org/2000/svg"
   xmlns:sodipodi="http://sodipodi.sourceforge.net/DTD/sodipodi-0.dtd"
   xmlns:inkscape="http://www.inkscape.org/namespaces/inkscape"
   width="32"
   height="32"
   viewBox="0 0 8.4666665 8.4666669"
   version="1.1"
   id="svg8"
   inkscape:version="0.92.2 (5c3e80d, 2017-08-06)"
   sodipodi:docname="fiverr.svg">
  <defs
     id="defs2" />
  <sodipodi:namedview
     id="base"
     pagecolor="#ffffff"
     bordercolor="#666666"
     borderopacity="1.0"
     inkscape:pageopacity="0.0"
     inkscape:pageshadow="2"
     inkscape:zoom="7.9195959"
     inkscape:cx="60.957745"
     inkscape:cy="7.5330379"
     inkscape:document-units="mm"
     inkscape:current-layer="layer1"
     showgrid="false"
     units="px"
     guidetolerance="20"
     inkscape:snap-path-clip="false"
     inkscape:snap-path-mask="false"
     objecttolerance="10000"
     gridtolerance="10"
     inkscape:snap-bbox="true"
     inkscape:bbox-paths="true"
     inkscape:bbox-nodes="true"
     inkscape:snap-bbox-edge-midpoints="true"
     inkscape:snap-bbox-midpoints="true"
     inkscape:object-paths="true"
     inkscape:snap-intersection-paths="true"
     inkscape:snap-smooth-nodes="true"
     inkscape:snap-midpoints="true"
     inkscape:snap-object-midpoints="true"
     inkscape:snap-center="true"
     inkscape:snap-text-baseline="true"
     inkscape:snap-page="true"
     inkscape:snap-global="false"
     inkscape:window-width="1920"
     inkscape:window-height="1017"
     inkscape:window-x="-8"
     inkscape:window-y="118"
     inkscape:window-maximized="1" />
  <metadata
     id="metadata5">
    <rdf:RDF>
      <cc:Work
         rdf:about="">
        <dc:format>image/svg+xml</dc:format>
        <dc:type
           rdf:resource="http://purl.org/dc/dcmitype/StillImage" />
        <dc:title></dc:title>
      </cc:Work>
    </rdf:RDF>
  </metadata>
  <g
     inkscape:label="Vrstva 1"
     inkscape:groupmode="layer"
     id="layer1"
     transform="translate(0,-288.53332)">
    <g
       id="g1423"
       transform="matrix(1.0795428,0,0,1.0795428,-0.89060742,-14.726401)">
      <path
         inkscape:connector-curvature="0"
         id="path1377"
         d="M 1.4764695,294.83844 H 2.7993861 L 4.342921,292.16495 2.3741629,293.2911 Z"
         style="fill:#343940;fill-opacity:1;stroke:none;stroke-width:0.26458332px;stroke-linecap:butt;stroke-linejoin:miter;stroke-opacity:1" />
      <path
         transform="matrix(0.26458333,0,0,0.26458333,0,288.53332)"
         id="path1379"
         d="M 9.4199219,2.65625 A 7.737136,7.737136 0 0 0 1.6816406,10.392578 7.737136,7.737136 0 0 0 9.4199219,18.130859 7.737136,7.737136 0 0 0 17.15625,10.392578 7.737136,7.737136 0 0 0 9.4199219,2.65625 Z m 0,4.2695312 A 3.4667824,3.4667824 0 0 1 12.886719,10.392578 3.4667824,3.4667824 0 0 1 9.4199219,13.859375 3.4667824,3.4667824 0 0 1 5.953125,10.392578 3.4667824,3.4667824 0 0 1 9.4199219,6.9257812 Z"
         style="fill:#343a40;fill-opacity:0.99014779;fill-rule:evenodd;stroke-width:0.99999994"
         inkscape:connector-curvature="0" />
      <path
         inkscape:connector-curvature="0"
         id="path1377-4"
         d="M 5.1692674,294.83845 H 6.492184 l 1.5435348,-2.67349 -1.968758,1.12615 z"
         style="fill:#343940;fill-opacity:1;stroke:none;stroke-width:0.26458332px;stroke-linecap:butt;stroke-linejoin:miter;stroke-opacity:1" />
      <path
         id="path1379-9"
         d="m 6.1851522,289.23612 a 2.0471172,2.0471172 0 0 0 -2.0474203,2.0469 2.0471172,2.0471172 0 0 0 2.0474203,2.04742 2.0471172,2.0471172 0 0 0 2.0469033,-2.04742 2.0471172,2.0471172 0 0 0 -2.0469033,-2.0469 z m 0,1.12965 a 0.91725284,0.91725284 0 0 1 0.9172566,0.91725 0.91725284,0.91725284 0 0 1 -0.9172566,0.91726 0.91725284,0.91725284 0 0 1 -0.9172567,-0.91726 0.91725284,0.91725284 0 0 1 0.9172567,-0.91725 z"
         style="fill:#343a40;fill-opacity:0.99014779;fill-rule:evenodd;stroke-width:0.26458332"
         inkscape:connector-curvature="0" />
    </g>
    <path
       style="fill:#33393f;fill-opacity:0.99215686;fill-rule:evenodd;stroke-width:0.94686908"
       d="M 16.068359 0.1796875 A 15.752068 15.752068 0 0 0 0.31640625 15.931641 A 15.752068 15.752068 0 0 0 16.068359 31.683594 A 15.752068 15.752068 0 0 0 31.820312 15.931641 A 15.752068 15.752068 0 0 0 16.068359 0.1796875 z M 20.496094 5.8222656 C 21.639191 5.8219633 22.566154 6.7475069 22.566406 7.890625 C 22.56673 9.0341211 21.639599 9.9612777 20.496094 9.9609375 C 19.352996 9.9607107 18.42741 9.0337431 18.427734 7.890625 C 18.427986 6.7479226 19.353404 5.8225302 20.496094 5.8222656 z M 14.484375 6.0371094 L 14.484375 6.0390625 C 14.822146 6.0390625 15.159247 6.0495885 15.496094 6.0722656 C 15.707547 6.0877617 16.128906 6.1445312 16.128906 6.1445312 L 16.105469 9.375 C 16.105469 9.375 15.396396 9.3636614 15.042969 9.375 C 14.828224 9.3787795 14.511758 9.4054063 14.400391 9.4082031 C 14.289012 9.4109622 14.40084 9.4069559 14.376953 9.4082031 C 14.116026 9.4433527 13.886312 9.5290089 13.685547 9.671875 C 13.649022 9.7085364 13.582007 9.7615486 13.494141 9.8613281 C 13.466074 9.8976116 13.447942 9.9347365 13.423828 9.9804688 C 13.39973 10.026201 13.373975 10.077002 13.351562 10.136719 C 13.329154 10.196435 13.316565 10.171655 13.291016 10.339844 C 13.265504 10.508184 13.279297 11.150391 13.279297 11.150391 L 22.611328 11.150391 L 22.611328 20.724609 L 24.195312 20.724609 L 24.195312 23.792969 L 16.8125 23.792969 L 16.8125 20.724609 L 18.429688 20.724609 L 18.429688 14.21875 L 13.273438 14.21875 L 13.273438 20.724609 L 15.126953 20.724609 L 15.126953 23.757812 L 7.4394531 23.757812 L 7.4394531 20.689453 L 9.0917969 20.689453 L 9.0917969 14.183594 L 7.3730469 14.183594 L 7.40625 11.150391 L 9.0371094 11.150391 C 9.0371094 11.150391 9.02407 10.592248 9.0371094 10.314453 C 9.0470306 10.103064 9.059533 9.8922237 9.0957031 9.6835938 C 9.1286379 9.4939749 9.1782435 9.305976 9.2382812 9.1230469 C 9.3076885 8.9113933 9.3924967 8.7049771 9.4882812 8.5039062 C 9.562428 8.3483409 9.6481915 8.196671 9.7402344 8.0507812 C 9.8132624 7.9351277 9.8894133 7.8207339 9.9785156 7.7167969 C 10.123112 7.5483811 10.286277 7.3963311 10.455078 7.2519531 C 10.616966 7.1135846 10.787213 6.9856134 10.966797 6.8710938 C 11.164913 6.7448575 11.373576 6.6331094 11.587891 6.5371094 C 11.757388 6.4611409 11.934356 6.4020181 12.111328 6.3457031 C 12.311566 6.2818291 12.513446 6.2227108 12.71875 6.1777344 C 12.860555 6.1467422 13.004781 6.1263195 13.148438 6.1074219 C 13.275001 6.0896581 13.401764 6.0718855 13.529297 6.0605469 C 13.846597 6.0379453 14.16618 6.0355598 14.484375 6.0371094 z "
       transform="matrix(0.26458333,0,0,0.26458333,0,288.53332)"
       id="path1438" />
  </g>
</svg>
