<?xml version="1.0" encoding="UTF-8" standalone="no"?>
<!-- Created with Inkscape (http://www.inkscape.org/) -->

<svg
   xmlns:dc="http://purl.org/dc/elements/1.1/"
   xmlns:cc="http://creativecommons.org/ns#"
   xmlns:rdf="http://www.w3.org/1999/02/22-rdf-syntax-ns#"
   xmlns:svg="http://www.w3.org/2000/svg"
   xmlns="http://www.w3.org/2000/svg"
   xmlns:sodipodi="http://sodipodi.sourceforge.net/DTD/sodipodi-0.dtd"
   xmlns:inkscape="http://www.inkscape.org/namespaces/inkscape"
   width="32"
   height="32"
   viewBox="0 0 8.4666665 8.4666669"
   version="1.1"
   id="svg8"
   inkscape:version="0.92.2 (5c3e80d, 2017-08-06)"
   sodipodi:docname="upwork.svg">
  <defs
     id="defs2" />
  <sodipodi:namedview
     id="base"
     pagecolor="#ffffff"
     bordercolor="#666666"
     borderopacity="1.0"
     inkscape:pageopacity="0.0"
     inkscape:pageshadow="2"
     inkscape:zoom="7.9195959"
     inkscape:cx="60.957745"
     inkscape:cy="27.736089"
     inkscape:document-units="mm"
     inkscape:current-layer="layer1"
     showgrid="false"
     units="px"
     guidetolerance="20"
     inkscape:snap-path-clip="false"
     inkscape:snap-path-mask="false"
     objecttolerance="10000"
     gridtolerance="10"
     inkscape:snap-bbox="true"
     inkscape:bbox-paths="true"
     inkscape:bbox-nodes="true"
     inkscape:snap-bbox-edge-midpoints="true"
     inkscape:snap-bbox-midpoints="true"
     inkscape:object-paths="true"
     inkscape:snap-intersection-paths="true"
     inkscape:snap-smooth-nodes="true"
     inkscape:snap-midpoints="true"
     inkscape:snap-object-midpoints="true"
     inkscape:snap-center="true"
     inkscape:snap-text-baseline="true"
     inkscape:snap-page="true"
     inkscape:snap-global="false"
     inkscape:window-width="1920"
     inkscape:window-height="1017"
     inkscape:window-x="-8"
     inkscape:window-y="118"
     inkscape:window-maximized="1" />
  <metadata
     id="metadata5">
    <rdf:RDF>
      <cc:Work
         rdf:about="">
        <dc:format>image/svg+xml</dc:format>
        <dc:type
           rdf:resource="http://purl.org/dc/dcmitype/StillImage" />
        <dc:title></dc:title>
      </cc:Work>
    </rdf:RDF>
  </metadata>
  <g
     inkscape:label="Vrstva 1"
     inkscape:groupmode="layer"
     id="layer1"
     transform="translate(0,-288.53332)">
    <path
       style="fill:#33393f;fill-opacity:0.99215686;fill-rule:evenodd;stroke-width:0.25052577"
       d="m 4.4640315,298.05389 a 4.1677346,4.1677346 0 0 0 -4.16770407,4.1677 4.1677346,4.1677346 0 0 0 4.16770407,4.16771 4.1677346,4.1677346 0 0 0 4.1677042,-4.16771 4.1677346,4.1677346 0 0 0 -4.1677042,-4.1677 z m 1.5218709,0.82476 c 0.3874437,-1.1e-4 0.7016806,0.3138 0.701766,0.70125 1.101e-4,0.38758 -0.3141842,0.70188 -0.701766,0.70176 -0.3874434,-8e-5 -0.7013588,-0.31431 -0.701249,-0.70176 8.52e-5,-0.38731 0.3139437,-0.70116 0.701249,-0.70125 z m -2.0376014,0.0729 c 0.1144844,5e-4 0.2289603,0.004 0.3431315,0.0119 0.07167,0.005 0.2139402,0.0243 0.2139402,0.0243 l -0.00775,1.09503 c 0,0 -0.2398768,-0.004 -0.3596677,0 -0.072786,0.002 -0.1803276,0.0109 -0.2180746,0.0119 -0.037747,9.4e-4 -1.783e-4,-4.2e-4 -0.00827,0 -0.088439,0.0118 -0.1660465,0.0405 -0.2340944,0.0889 -0.01238,0.0124 -0.03533,0.0313 -0.065112,0.0651 -0.00951,0.0123 -0.015601,0.0248 -0.023771,0.0403 -0.00817,0.0155 -0.016688,0.0325 -0.024288,0.0527 -0.0076,0.0202 -0.011494,0.0112 -0.020154,0.0682 -0.00865,0.057 -0.00465,0.27492 -0.00465,0.27492 h 3.1631144 v 3.24528 h 0.5374349 v 1.03973 H 4.7373998 v -1.03973 h 0.5482871 v -2.20555 H 3.5374732 v 2.20555 h 0.6283854 v 1.02836 H 1.5603329 v -1.03973 H 2.1205055 V 301.7131 H 1.5381121 l 0.010852,-1.02836 h 0.5529378 c 0,0 -0.00442,-0.18847 0,-0.28267 0.00336,-0.0716 0.00789,-0.14376 0.020154,-0.21446 0.011163,-0.0643 0.02771,-0.12765 0.048059,-0.18965 0.023524,-0.0717 0.0528,-0.14213 0.085266,-0.21033 0.025132,-0.0528 0.053552,-0.10356 0.084749,-0.15296 0.024753,-0.0392 0.050414,-0.078 0.080615,-0.11317 0.04901,-0.0571 0.1045333,-0.10871 0.1617472,-0.15761 0.05487,-0.0469 0.1127639,-0.0909 0.1736329,-0.12971 0.06715,-0.0428 0.137683,-0.0807 0.210323,-0.11317 0.057449,-0.0258 0.1172663,-0.0455 0.1772502,-0.0646 0.067869,-0.0216 0.1366031,-0.041 0.206189,-0.0563 0.048064,-0.0105 0.097037,-0.0173 0.1457275,-0.0243 0.042898,-0.006 0.085965,-0.012 0.129191,-0.016 0.1075462,-0.008 0.2156447,-0.009 0.3234947,-0.008 z"
       id="path1438"
       inkscape:connector-curvature="0" />
    <path
       style="fill:#32383e;fill-opacity:0.99215686;stroke-width:0.0432055"
       d="m 6.209223,299.78181 c -0.3668741,-0.13277 -0.6512138,-0.51869 -0.6530561,-0.88635 -0.00295,-0.58583 0.4020718,-1.00492 0.9711752,-1.00492 0.5691032,0 0.974109,0.41909 0.9711752,1.00492 -0.00312,0.62735 -0.693502,1.10196 -1.2892943,0.88635 z m 0.5527485,-0.39295 c 0.06728,-0.0348 0.1732465,-0.12377 0.2354846,-0.19774 0.1943664,-0.23098 0.1345695,-0.60766 -0.1294336,-0.81533 -0.1593666,-0.12535 -0.5219943,-0.12535 -0.6813609,0 -0.340078,0.26751 -0.3143435,0.76977 0.050273,0.98113 0.1889095,0.10951 0.3554481,0.11964 0.5250411,0.0319 z m -3.2943315,0.3333 c -0.028355,-0.0489 -0.5047525,-1.6909 -0.5047525,-1.7398 0,-0.0234 0.087492,-0.0425 0.1944253,-0.0425 0.1069337,0 0.1944247,0.009 0.1944247,0.0196 0,0.0593 0.3159364,1.17339 0.3401783,1.19956 0.015862,0.0171 0.095562,-0.25022 0.1771045,-0.59408 l 0.1482598,-0.62521 h 0.2022763 0.2022764 l 0.1406415,0.57248 c 0.077356,0.31485 0.1539719,0.59799 0.1702643,0.62916 0.016292,0.0312 0.105168,-0.22643 0.1975009,-0.57248 l 0.1678788,-0.62916 h 0.2012192 0.2012191 l -0.260482,0.90933 -0.2604803,0.90933 -0.2176665,-0.0128 -0.2176666,-0.0128 -0.147682,-0.59408 c -0.081222,-0.32664 -0.1609527,-0.59398 -0.1771718,-0.59398 -0.016225,0 -0.095591,0.27221 -0.1763817,0.60489 l -0.1468919,0.60487 H 3.6912941 c -0.1126627,0 -0.2133065,-0.0146 -0.2236541,-0.0324 z m 4.3342648,-0.87492 v -0.90731 h 0.1944246 c 0.189596,0 0.1944245,0.003 0.1944245,0.13715 v 0.13713 l 0.097213,-0.091 c 0.1202003,-0.11261 0.3003264,-0.18323 0.4672718,-0.18323 0.1214824,0 0.1268037,0.008 0.1268037,0.19443 0,0.1905 -0.00286,0.19441 -0.1404181,0.19457 -0.1944179,2.2e-4 -0.41447,0.14587 -0.4886615,0.32345 -0.041386,0.099 -0.062209,0.30844 -0.062209,0.62554 v 0.47663 H 7.9963294 7.8019048 Z m 1.3825754,-0.45365 v -1.36098 h 0.1944251 0.194425 v 0.71034 c 0,0.43823 0.016957,0.72082 0.04426,0.7377 0.1531232,0.0946 0.5413137,-0.17418 0.5878987,-0.4071 0.02547,-0.12731 0.03661,-0.13362 0.236271,-0.13362 h 0.209546 l -0.02676,0.14042 c -0.04227,0.2218 -0.171679,0.44545 -0.336254,0.5811 l -0.151655,0.12501 0.344825,0.46967 c 0.189654,0.25831 0.344825,0.47614 0.344825,0.48404 0,0.008 -0.105811,0.0144 -0.235138,0.0144 H 10.35601 l -0.29413,-0.40849 c -0.4299735,-0.59717 -0.488553,-0.59709 -0.488553,6e-4 v 0.40789 H 9.3789019 9.1844769 Z m -8.38186733,-5.55192 v -3.45644 H 4.2590529 7.7154931 v 3.45644 3.45644 H 4.2590529 0.80261287 Z m 4.01608093,1.86864 c 0.1562658,-0.75884 0.1699535,-0.80015 0.2531002,-0.7639 0.4837992,0.21089 0.7873512,0.23815 1.1482157,0.10314 0.4561819,-0.17067 0.7585637,-0.58327 0.7945155,-1.08407 0.017302,-0.24102 0.00354,-0.32388 -0.086452,-0.52045 -0.2192579,-0.47892 -0.5692044,-0.73028 -1.0614923,-0.76245 -0.4832255,-0.0315 -0.9266454,0.23542 -1.1618536,0.69959 -0.082797,0.16339 -0.1178804,0.19938 -0.1491351,0.15295 -0.1081217,-0.16057 -0.2981928,-0.56914 -0.4051005,-0.87079 L 4.0318204,291.32948 H 3.7133821 3.3949429 v 0.84678 c 0,0.68363 -0.0132,0.8746 -0.068527,0.99121 -0.1700218,0.35829 -0.6409453,0.41052 -0.9021795,0.10007 -0.1259462,-0.13812 -0.119882,-0.70155 -0.1094273,-1.03406 v -0.904 H 1.9649332 1.6150584 l 0.01678,0.93972 c 0.018869,1.05671 0.036376,1.11002 0.3723199,1.50102 0.1950783,0.22705 0.5308476,0.31963 0.8291144,0.34501 0.1888908,0.0161 0.3982336,-0.0192 0.5544442,-0.12662 0.3174528,-0.21828 0.6007042,-0.54392 0.6436426,-0.95995 l 0.024159,-0.23406 0.1009867,0.17779 c 0.055546,0.0978 0.1396102,0.23203 0.1868153,0.29833 l 0.085826,0.12052 -0.1726931,0.81616 c -0.094981,0.44888 -0.1831678,0.85017 -0.1959703,0.89177 -0.020815,0.0676 0.012989,0.0756 0.3196463,0.0756 h 0.3429237 z m 0.6933191,-1.28632 c -0.1069337,-0.0351 -0.2364709,-0.0978 -0.28786,-0.13938 -0.09303,-0.0753 -0.09311,-0.0769 -0.018583,-0.36765 0.122569,-0.47804 0.3955106,-0.67136 0.7836976,-0.55505 0.3207734,0.0961 0.4830756,0.52852 0.304871,0.81227 -0.171923,0.27374 -0.4438849,0.3606 -0.7821292,0.24981 z"
       id="path1501"
       inkscape:connector-curvature="0"
       sodipodi:nodetypes="ccsccccccccccsssccccccccccccccccsscsccccssccssccsccccccccsccscccccssccsccccccccccccccccsccccscccsccccccsaaacccccccsccccccccc" />
  </g>
</svg>
